<?xml version="1.0" standalone="no"?>
<!DOCTYPE svg PUBLIC "-//W3C//DTD SVG 20010904//EN"
 "http://www.w3.org/TR/2001/REC-SVG-20010904/DTD/svg10.dtd">
<svg version="1.0" xmlns="http://www.w3.org/2000/svg"
 width="110.000000pt" height="110.000000pt" viewBox="0 0 110.000000 110.000000"
 preserveAspectRatio="xMidYMid meet">
<metadata>
Created by potrace 1.14, written by Peter Selinger 2001-2017
</metadata>
<g transform="translate(0.000000,110.000000) scale(0.100000,-0.100000)"
fill="#000000" stroke="none">
<path d="M370 689 c0 -12 -7 -27 -16 -33 -21 -16 -7 -46 22 -46 19 0 24 5 24
25 0 22 4 25 35 25 l35 0 0 -50 c0 -48 -1 -50 -29 -50 -29 0 -42 -14 -34 -37
3 -7 18 -13 34 -13 28 0 29 -1 29 -50 l0 -50 -35 0 c-31 0 -35 3 -35 26 0 22
-4 25 -27 22 -32 -4 -39 -20 -18 -41 8 -9 15 -25 15 -36 0 -19 6 -21 65 -21
62 0 65 1 65 24 0 13 5 26 12 28 6 2 11 24 11 48 0 24 -5 46 -11 48 -15 5 -16
49 -1 54 16 5 17 89 2 95 -7 3 -13 16 -13 29 0 23 -3 24 -65 24 -60 0 -65 -2
-65 -21z"/>
<path d="M900 684 c0 -23 3 -25 33 -22 24 2 33 8 35 26 3 19 -1 22 -32 22 -32
0 -36 -3 -36 -26z"/>
<path d="M870 636 c0 -14 -4 -26 -10 -26 -6 0 -10 -32 -10 -75 0 -43 4 -75 10
-75 6 0 10 -11 10 -25 0 -26 24 -35 32 -12 2 6 4 61 4 122 -1 96 -3 110 -18
113 -14 3 -18 -3 -18 -22z"/>
<path d="M967 653 c-2 -5 -4 -60 -3 -123 1 -104 3 -115 20 -118 15 -3 18 1 14
22 -3 16 -1 26 7 26 13 0 16 133 3 146 -5 4 -8 18 -8 31 0 22 -23 33 -33 16z"/>
<path d="M96 594 c-10 -26 3 -34 53 -34 44 0 48 -2 47 -22 -1 -18 5 -24 27
-26 22 -3 27 1 27 18 0 12 7 28 15 36 8 8 12 21 9 29 -9 23 -169 21 -178 -1z"/>
<path d="M580 585 c0 -18 5 -25 20 -25 18 0 20 -7 20 -75 0 -68 -2 -75 -20
-75 -15 0 -20 -7 -20 -25 0 -24 2 -25 65 -25 63 0 65 1 65 25 0 18 -5 25 -19
25 -16 0 -19 7 -18 50 0 28 4 50 9 50 4 0 8 11 8 25 0 18 5 25 20 25 15 0 20
-7 20 -25 0 -20 5 -25 24 -25 31 0 41 16 28 43 -6 12 -13 30 -16 40 -4 13 -16
17 -51 17 -41 0 -45 -2 -45 -25 0 -14 -4 -25 -10 -25 -5 0 -10 11 -10 25 0 22
-4 25 -35 25 -31 0 -35 -3 -35 -25z"/>
<path d="M146 501 c-11 -18 6 -41 30 -41 19 0 24 5 24 25 0 20 -5 25 -24 25
-14 0 -27 -4 -30 -9z"/>
<path d="M98 453 c-2 -5 -4 -26 -4 -48 l1 -40 88 -3 87 -3 0 26 c0 24 -2 25
-60 25 -57 0 -60 1 -60 25 0 20 -5 25 -24 25 -14 0 -26 -3 -28 -7z"/>
<path d="M900 385 c0 -22 4 -25 35 -25 31 0 35 3 35 25 0 22 -4 25 -35 25 -31
0 -35 -3 -35 -25z"/>
</g>
</svg>
